<?xml version="1.0" encoding="utf-8"?>
<!-- Generator: Adobe Illustrator 16.0.0, SVG Export Plug-In . SVG Version: 6.00 Build 0)  -->
<!DOCTYPE svg PUBLIC "-//W3C//DTD SVG 1.1//EN" "http://www.w3.org/Graphics/SVG/1.1/DTD/svg11.dtd">
<svg version="1.1" id="Capa_1" xmlns="http://www.w3.org/2000/svg" xmlns:xlink="http://www.w3.org/1999/xlink" x="0px" y="0px"
	 width="100px" height="100px" viewBox="0 0 100 100" enable-background="new 0 0 100 100" xml:space="preserve">
<g>
	<path d="M58.302,59.845l-10.616-5.582l-10.616,5.582l2.028-11.821l-8.588-8.372l11.733-1.706l0.11-0.42
		c0.654-2.683,2.487-8.942,5.327-8.942c1.389,0.034,3.141,1.128,4.733,9.268l12.452,1.799l-8.59,8.372L58.302,59.845z
		 M32.657,40.351l7.514,7.325l-1.774,10.341l9.288-4.883l9.288,4.883l-1.774-10.342l7.514-7.324l-10.454-1.516l-0.677,0.005
		l-0.077-0.407c-1.107-5.836-2.391-8.814-3.816-8.849c-1.641,0-3.374,4.112-4.367,8.187l-0.28,1.069L32.657,40.351z"/>
</g>
</svg>
